<svg xmlns="http://www.w3.org/2000/svg" viewBox="0 0 24 24" id="michael-kors"><path fill="#455A64" d="m16.66 12.5 4.5 4.5h-2.82l-3.09-3.09L14 15.16V17h-2v-5l-2.5 5h-1L6 12v5H4V8h2l3 6 3-6h2v4.34L18.34 8h2.82l-4.5 4.5z"></path><path fill="#455A64" d="M12 24C5.383 24 0 18.617 0 12S5.383 0 12 0s12 5.383 12 12-5.383 12-12 12zm0-22C6.486 2 2 6.486 2 12s4.486 10 10 10 10-4.486 10-10S17.514 2 12 2z"></path><path fill="#DEDEDE" d="M12 2C6.486 2 2 6.486 2 12s4.486 10 10 10V12l-2.5 5h-1L6 12v5H4V8h2l3 6 3-6V2z"></path><path fill="#3C4E57" d="m12 8-3 6-3-6H4v9h2v-5l2.5 5h1l2.5-5v5-9z"></path><path fill="#3C4E57" d="M12 0C5.383 0 0 5.383 0 12s5.383 12 12 12v-2C6.486 22 2 17.514 2 12S6.486 2 12 2V0z"></path></svg>