<svg xmlns="http://www.w3.org/2000/svg" viewBox="0 0 25 25" id="michael-kors"><path fill="#583689" d="M12.5 25.013c-6.893 0-12.5-5.607-12.5-12.5S5.607.013 12.5.013 25 5.62 25 12.513s-5.607 12.5-12.5 12.5zm0-23c-5.79 0-10.5 4.71-10.5 10.5s4.71 10.5 10.5 10.5 10.5-4.71 10.5-10.5-4.71-10.5-10.5-10.5z"></path><path fill="#DE002A" d="M14.625 17.375h-1.5v-5.823l-2.704 5.408c-.254.51-1.088.51-1.342 0l-2.704-5.408v5.69h-1.5V8.375c0-.348.239-.65.578-.729a.746.746 0 0 1 .843.394l3.454 6.908 3.454-6.908a.75.75 0 0 1 1.421.334v9.001z"></path><path fill="#DE002A" d="m13.225 13.005 6.203-5.615 1.007 1.112-6.204 5.615z"></path><path fill="#DE002A" d="m14.686 11.576 1.204-.895 4.535 6.099-1.204.895z"></path></svg>